<svg width="963" height="538" viewBox="0 0 963 538" fill="none" xmlns="http://www.w3.org/2000/svg">
<rect width="963" height="538" fill="white"/>
<path d="M495.632 202.244L486.639 246.182L495.084 202.135" fill="#1D1D1B"/>
<path d="M496.558 230.23L489.434 247.099L496.101 230.045" fill="#1D1D1B"/>
<path d="M517.561 209.724L491.982 248.522L517.049 209.393" fill="#1D1D1B"/>
<path d="M512.313 231.972L494.202 250.392L511.935 231.61" fill="#1D1D1B"/>
<path d="M517.452 237.879L496.028 252.634L517.126 237.42" fill="#1D1D1B"/>
<path d="M529.93 240.768L497.404 255.155L529.717 240.297" fill="#1D1D1B"/>
<path d="M519.634 253.063L498.26 257.887L519.516 252.567" fill="#1D1D1B"/>
<path d="M510.465 260.455L498.598 260.714L510.443 259.941" fill="#1D1D1B"/>
<path d="M518.42 266.758L498.415 263.549L518.493 266.259" fill="#1D1D1B"/>
<path d="M542.075 282.107L497.712 266.297L542.251 281.602" fill="#1D1D1B"/>
<path d="M529.471 288.357L496.506 268.857L529.76 287.858" fill="#1D1D1B"/>
<path d="M515.308 289.323L494.856 271.152L515.655 288.927" fill="#1D1D1B"/>
<path d="M507.179 291.909L492.813 273.115L507.587 291.593" fill="#1D1D1B"/>
<path d="M501.937 297.684L490.441 274.666L502.403 297.447" fill="#1D1D1B"/>
<path d="M491.197 288.211L487.812 275.759L491.635 288.083" fill="#1D1D1B"/>
<path d="M487.51 306.25L485.02 276.34L488.079 306.196" fill="#1D1D1B"/>
<path d="M478.294 312.913L482.158 276.399L478.839 312.965" fill="#1D1D1B"/>
<path d="M471.941 299.887L479.314 275.923L472.44 300.033" fill="#1D1D1B"/>
<path d="M466.482 293.815L476.605 274.909L466.976 294.071" fill="#1D1D1B"/>
<path d="M453.251 299.366L474.118 273.4L453.675 299.701" fill="#1D1D1B"/>
<path d="M463.149 278.697L471.953 271.439L463.484 279.083" fill="#1D1D1B"/>
<path d="M445.948 282.712L470.194 269.089L446.213 283.171" fill="#1D1D1B"/>
<path d="M444.548 274.52L468.903 266.438L444.734 275.052" fill="#1D1D1B"/>
<path d="M432.666 268.355L468.151 263.567L432.739 268.866" fill="#1D1D1B"/>
<path d="M452.018 259.587L467.968 260.606L451.994 260.067" fill="#1D1D1B"/>
<path d="M447.894 252.381L468.358 257.649L447.763 252.919" fill="#1D1D1B"/>
<path d="M449.415 245.409L469.31 254.82L449.184 245.914" fill="#1D1D1B"/>
<path d="M443.802 232.672L470.808 252.229L443.506 233.089" fill="#1D1D1B"/>
<path d="M463.073 239.418L472.779 249.981L462.689 239.786" fill="#1D1D1B"/>
<path d="M462.796 228.466L475.137 248.157L462.363 228.746" fill="#1D1D1B"/>
<path d="M473.402 235.12L477.804 246.818L472.918 235.312" fill="#1D1D1B"/>
<path d="M475.126 215.815L480.679 246.036L474.602 215.916" fill="#1D1D1B"/>
<path d="M483.918 212.044L483.631 245.817L483.342 212.044" fill="#1D1D1B"/>
<path d="M500.845 147.983L485.659 245.546L500.266 147.895L500.845 147.983Z" fill="#1D1D1B"/>
<path d="M516.377 154.218L487.903 246.061L515.805 154.042L516.377 154.218Z" fill="#1D1D1B"/>
<path d="M528.205 167.282L490.043 246.891L527.678 167.032L528.205 167.282Z" fill="#1D1D1B"/>
<path d="M546.45 167.253L492.05 248.027L545.963 166.931L546.45 167.253Z" fill="#1D1D1B"/>
<path d="M557.638 179.44L493.861 249.438L557.193 179.042L557.638 179.44Z" fill="#1D1D1B"/>
<path d="M554.003 203.248L495.45 251.1L553.634 202.801L554.003 203.248Z" fill="#1D1D1B"/>
<path d="M576.912 204.942L496.781 252.974L576.617 204.452L576.912 204.942Z" fill="#1D1D1B"/>
<path d="M576.272 222.443L497.822 255.027L576.041 221.893L576.272 222.443Z" fill="#1D1D1B"/>
<path d="M576.866 237.403L498.562 257.201L576.723 236.841L576.866 237.403Z" fill="#1D1D1B"/>
<path d="M575.457 251.675L498.964 259.461L575.393 251.082L575.457 251.675Z" fill="#1D1D1B"/>
<path d="M575.481 265.146L499.037 261.758L575.505 264.568L575.481 265.146Z" fill="#1D1D1B"/>
<path d="M578.102 279.298L498.774 264.042L578.214 278.714L578.102 279.298Z" fill="#1D1D1B"/>
<path d="M568.177 290.714L498.181 266.266L568.363 290.169L568.177 290.714Z" fill="#1D1D1B"/>
<path d="M583.892 313.592L497.277 268.373L584.16 313.072L583.892 313.592Z" fill="#1D1D1B"/>
<path d="M573.569 326.485L496.071 270.335L573.904 326.02L573.569 326.485Z" fill="#1D1D1B"/>
<path d="M494.595 272.093L550.556 325.952L550.142 326.378L494.595 272.093Z" fill="#1D1D1B"/>
<path d="M539.572 334.938L492.875 273.62L540.044 334.576L539.572 334.938Z" fill="#1D1D1B"/>
<path d="M530.138 345.747L490.957 274.885L530.646 345.464L530.138 345.747Z" fill="#1D1D1B"/>
<path d="M525.946 374.396L488.872 275.85L526.494 374.186L525.946 374.396Z" fill="#1D1D1B"/>
<path d="M501.941 347.338L486.67 276.51L502.522 347.21L501.941 347.338Z" fill="#1D1D1B"/>
<path d="M489.273 350.16L484.39 276.835L489.848 350.121L489.273 350.16Z" fill="#1D1D1B"/>
<path d="M482.091 276.829L477.208 345.121L476.618 345.075L482.091 276.829Z" fill="#1D1D1B"/>
<path d="M479.817 276.491L458.488 372.358L457.919 372.23L479.817 276.491Z" fill="#1D1D1B"/>
<path d="M477.616 275.819L451.459 344.479L450.92 344.272L477.616 275.819Z" fill="#1D1D1B"/>
<path d="M475.537 274.842L430.425 355.318L429.917 355.032L475.537 274.842Z" fill="#1D1D1B"/>
<path d="M473.622 273.57L432.514 327.007L432.045 326.645L473.622 273.57Z" fill="#1D1D1B"/>
<path d="M471.911 272.031L407.319 334.398L406.923 333.987L471.911 272.031Z" fill="#1D1D1B"/>
<path d="M470.444 270.268L419.234 307.073L418.902 306.608L470.444 270.268Z" fill="#1D1D1B"/>
<path d="M469.244 268.301L378.732 314.925L378.467 314.404L469.244 268.301Z" fill="#1D1D1B"/>
<path d="M468.352 266.187L380.845 296.17L380.653 295.604L468.352 266.187Z" fill="#1D1D1B"/>
<path d="M467.771 263.963L384.708 279.46L384.604 278.891L467.771 263.963Z" fill="#1D1D1B"/>
<path d="M467.527 261.679L378.281 265.113L378.26 264.516L467.527 261.679Z" fill="#1D1D1B"/>
<path d="M467.612 259.383L398.757 252.016L398.818 251.444L467.612 259.383Z" fill="#1D1D1B"/>
<path d="M468.029 257.122L386.285 235.978L386.431 235.418L468.029 257.122Z" fill="#1D1D1B"/>
<path d="M468.775 254.947L397.625 224.979L397.856 224.432L468.775 254.947Z" fill="#1D1D1B"/>
<path d="M469.826 252.907L408.984 216.086L409.291 215.581L469.826 252.907Z" fill="#1D1D1B"/>
<path d="M471.171 251.039L418.589 207.639L418.966 207.183L471.171 251.039Z" fill="#1D1D1B"/>
<path d="M472.766 249.386L413.876 184.066L414.302 183.688L472.766 249.386Z" fill="#1D1D1B"/>
<path d="M474.587 247.978L437.485 192.434L437.982 192.108L474.587 247.978Z" fill="#1D1D1B"/>
<path d="M476.593 246.854L447.684 185.889L448.223 185.637L476.593 246.854Z" fill="#1D1D1B"/>
<path d="M478.74 246.035L455.295 169.12L455.849 168.953L478.74 246.035Z" fill="#1D1D1B"/>
<path d="M480.989 245.541L468.282 161.244L468.873 161.159L480.989 245.541Z" fill="#1D1D1B"/>
<path d="M483.282 245.37L482.993 163.37H483.574L483.282 245.37Z" fill="#1D1D1B"/>
<path d="M503.725 101.329L485.282 245.255L503.143 101.256L503.725 101.329Z" fill="#1D1D1B"/>
<path d="M517.695 124.113L487.145 245.595L517.111 123.967L517.695 124.113Z" fill="#1D1D1B"/>
<path d="M534.482 126.951L488.957 246.164L533.928 126.741L534.482 126.951Z" fill="#1D1D1B"/>
<path d="M545.597 142.36L490.686 246.94L545.064 142.083L545.597 142.36Z" fill="#1D1D1B"/>
<path d="M564.512 142.773L492.312 247.913L564.025 142.438L564.512 142.773Z" fill="#1D1D1B"/>
<path d="M593.391 135.488L493.809 249.071L592.949 135.104L593.391 135.488Z" fill="#1D1D1B"/>
<path d="M586.005 168.76L495.161 250.398L585.609 168.322L586.005 168.76Z" fill="#1D1D1B"/>
<path d="M617.913 166.162L496.342 251.876L617.569 165.679L617.913 166.162Z" fill="#1D1D1B"/>
<path d="M636.88 178.009L497.35 253.482L636.593 177.479L636.88 178.009Z" fill="#1D1D1B"/>
<path d="M611.298 210.405L498.151 255.192L611.079 209.857L611.298 210.405Z" fill="#1D1D1B"/>
<path d="M632.508 221.57L498.75 256.989L632.352 220.998L632.508 221.57Z" fill="#1D1D1B"/>
<path d="M622.419 241.435L499.131 258.845L622.334 240.839L622.419 241.435Z" fill="#1D1D1B"/>
<path d="M644.128 257.493L499.289 260.733L644.113 256.903L644.128 257.493Z" fill="#1D1D1B"/>
<path d="M640.813 276.263L499.222 262.625L640.868 275.664L640.813 276.263Z" fill="#1D1D1B"/>
<path d="M625.183 292.006L498.933 264.495L625.308 291.428L625.183 292.006Z" fill="#1D1D1B"/>
<path d="M613.082 305.982L498.427 266.32L613.276 305.416L613.082 305.982Z" fill="#1D1D1B"/>
<path d="M632.389 333.274L497.712 268.075L632.642 332.744L632.389 333.274Z" fill="#1D1D1B"/>
<path d="M599.525 335.53L496.78 269.724L599.842 335.035L599.525 335.53Z" fill="#1D1D1B"/>
<path d="M600.716 357.576L495.669 271.257L601.096 357.113L600.716 357.576Z" fill="#1D1D1B"/>
<path d="M588.751 371.034L494.384 272.649L589.177 370.624L588.751 371.034Z" fill="#1D1D1B"/>
<path d="M584.194 394.832L492.941 273.879L584.668 394.473L584.194 394.832Z" fill="#1D1D1B"/>
<path d="M550.13 375.845L491.371 274.927L550.639 375.547L550.13 375.845Z" fill="#1D1D1B"/>
<path d="M542.96 398.67L489.678 275.789L543.511 398.43L542.96 398.67Z" fill="#1D1D1B"/>
<path d="M529.806 416.451L487.897 276.442L530.375 416.277L529.806 416.451Z" fill="#1D1D1B"/>
<path d="M508.175 404.179L486.058 276.878L508.757 404.075L508.175 404.179Z" fill="#1D1D1B"/>
<path d="M490.63 398.041L484.173 277.097L491.23 398.007L490.63 398.041Z" fill="#1D1D1B"/>
<path d="M482.28 277.09L473.765 417.366L473.171 417.329L482.28 277.09Z" fill="#1D1D1B"/>
<path d="M480.396 276.859L459.804 390.85L459.225 390.744L480.396 276.859Z" fill="#1D1D1B"/>
<path d="M478.557 276.412L431.408 429.992L430.833 429.815L478.557 276.412Z" fill="#1D1D1B"/>
<path d="M476.782 275.739L418.701 407.146L418.159 406.903L476.782 275.739Z" fill="#1D1D1B"/>
<path d="M475.102 274.873L393.829 412.037L393.317 411.733L475.102 274.873Z" fill="#1D1D1B"/>
<path d="M473.53 273.812L391.411 381.157L390.942 380.795L473.53 273.812Z" fill="#1D1D1B"/>
<path d="M472.1 272.571L390.258 356.789L389.829 356.372L472.1 272.571Z" fill="#1D1D1B"/>
<path d="M470.821 271.172L375.636 348.33L375.264 347.87L470.821 271.172Z" fill="#1D1D1B"/>
<path d="M469.722 269.633L352.632 343.454L352.312 342.946L469.722 269.633Z" fill="#1D1D1B"/>
<path d="M468.812 267.972L347.427 325.743L347.174 325.207L468.812 267.972Z" fill="#1D1D1B"/>
<path d="M468.102 266.217L331.806 312.257L331.614 311.685L468.102 266.217Z" fill="#1D1D1B"/>
<path d="M467.607 264.393L352.572 288.64L352.453 288.074L467.607 264.393Z" fill="#1D1D1B"/>
<path d="M304.251 276.44L467.338 262.516L304.303 277.033L304.251 276.44Z" fill="#1D1D1B"/>
<path d="M467.283 260.624L309.247 255.976L309.265 255.374L467.283 260.624Z" fill="#1D1D1B"/>
<path d="M467.448 258.735L329.836 238.296L329.924 237.709L467.448 258.735Z" fill="#1D1D1B"/>
<path d="M467.837 256.886L314.434 215.083L314.592 214.508L467.837 256.886Z" fill="#1D1D1B"/>
<path d="M468.45 255.094L323.79 196.587L324.018 196.027L468.45 255.094Z" fill="#1D1D1B"/>
<path d="M469.268 253.385L363.68 195.404L363.966 194.89L469.268 253.385Z" fill="#1D1D1B"/>
<path d="M470.285 251.785L352.979 167.878L353.326 167.397L470.285 251.785Z" fill="#1D1D1B"/>
<path d="M471.476 250.319L366.917 154.991L367.324 154.547L471.476 250.319Z" fill="#1D1D1B"/>
<path d="M472.84 248.998L383.728 145.993L384.184 145.604L472.84 248.998Z" fill="#1D1D1B"/>
<path d="M474.344 247.849L404.122 144.072L404.612 143.74L474.344 247.849Z" fill="#1D1D1B"/>
<path d="M475.975 246.89L413.56 125.885L414.086 125.614L475.975 246.89Z" fill="#1D1D1B"/>
<path d="M477.713 246.121L433.987 129.247L434.55 129.037L477.713 246.121Z" fill="#1D1D1B"/>
<path d="M479.522 245.571L450.792 127.909L451.364 127.77L479.522 245.571Z" fill="#1D1D1B"/>
<path d="M481.394 245.242L467.262 129.14L467.856 129.07L481.394 245.242Z" fill="#1D1D1B"/>
<path d="M483.281 245.128L482.98 105.141H483.583L483.281 245.128Z" fill="#1D1D1B"/>
<path d="M506.169 45.6439L484.95 245.181L505.582 45.5801L506.169 45.6439Z" fill="#1D1D1B"/>
<path d="M523.835 66.7896L486.536 245.419L523.245 66.668L523.835 66.7896Z" fill="#1D1D1B"/>
<path d="M546.617 60.2008L488.083 245.817L546.044 60.0244L546.617 60.2008Z" fill="#1D1D1B"/>
<path d="M489.586 246.371L571.8 53.1201L572.357 53.3574" fill="#1D1D1B"/>
<path d="M596.417 56.3172L491.018 247.074L595.893 56.0312L596.417 56.3172Z" fill="#1D1D1B"/>
<path d="M492.381 247.913L598.77 92.9072L599.263 93.2448L492.381 247.913Z" fill="#1D1D1B"/>
<path d="M623.913 95.5594L493.645 248.89L623.454 95.167L623.913 95.5594Z" fill="#1D1D1B"/>
<path d="M639.942 110.134L494.813 249.975L639.525 109.705L639.942 110.134Z" fill="#1D1D1B"/>
<path d="M650.019 129.761L495.864 251.18L649.642 129.29L650.019 129.761Z" fill="#1D1D1B"/>
<path d="M664.851 145.337L496.792 252.481L664.525 144.829L664.851 145.337Z" fill="#1D1D1B"/>
<path d="M680.749 161.287L497.59 253.869L680.478 160.752L680.749 161.287Z" fill="#1D1D1B"/>
<path d="M677.82 186.027L498.248 255.322L677.601 185.461L677.82 186.027Z" fill="#1D1D1B"/>
<path d="M687.505 204.853L498.744 256.842L687.343 204.278L687.505 204.853Z" fill="#1D1D1B"/>
<path d="M673.671 228.609L499.101 258.401L673.571 228.019L673.671 228.609Z" fill="#1D1D1B"/>
<path d="M689.535 246.73L499.289 259.982L689.493 246.128L689.535 246.73Z" fill="#1D1D1B"/>
<path d="M704.504 267.719L499.319 261.581L704.523 267.12L704.504 267.719Z" fill="#1D1D1B"/>
<path d="M696.145 288.825L499.198 263.17L696.221 288.232L696.145 288.825Z" fill="#1D1D1B"/>
<path d="M688.391 308.93L498.915 264.745L688.528 308.343L688.391 308.93Z" fill="#1D1D1B"/>
<path d="M664.087 322.795L498.482 266.277L664.279 322.23L664.087 322.795Z" fill="#1D1D1B"/>
<path d="M676.155 349.143L497.889 267.761L676.402 348.605L676.155 349.143Z" fill="#1D1D1B"/>
<path d="M654.364 360.879L497.155 269.18L654.668 360.356L654.364 360.879Z" fill="#1D1D1B"/>
<path d="M638.091 373.416L496.281 270.518L638.441 372.932L638.091 373.416Z" fill="#1D1D1B"/>
<path d="M646.701 406.493L495.276 271.765L647.103 406.04L646.701 406.493Z" fill="#1D1D1B"/>
<path d="M636.843 427.896L494.159 272.905L637.285 427.492L636.843 427.896Z" fill="#1D1D1B"/>
<path d="M606.856 425.585L492.936 273.928L607.337 425.22L606.856 425.585Z" fill="#1D1D1B"/>
<path d="M491.614 274.831L596.843 447.387L596.332 447.697L491.614 274.831Z" fill="#1D1D1B"/>
<path d="M563.221 428.809L490.21 275.588L563.76 428.553L563.221 428.809Z" fill="#1D1D1B"/>
<path d="M555.513 461.924L488.737 276.211L556.082 461.718L555.513 461.924Z" fill="#1D1D1B"/>
<path d="M534.945 467.223L487.203 276.667L535.526 467.077L534.945 467.223Z" fill="#1D1D1B"/>
<path d="M512.459 459.863L485.635 276.987L513.049 459.775L512.459 459.863Z" fill="#1D1D1B"/>
<path d="M493.766 487.942L484.045 277.139L494.369 487.914L493.766 487.942Z" fill="#1D1D1B"/>
<path d="M482.445 277.139L471.607 490.153L471.007 490.12L482.445 277.139Z" fill="#1D1D1B"/>
<path d="M480.856 276.974L449.501 483.659L448.905 483.567L480.856 276.974Z" fill="#1D1D1B"/>
<path d="M479.291 276.655L431.26 464.601L430.681 464.452L479.291 276.655Z" fill="#1D1D1B"/>
<path d="M477.762 276.187L407.117 469.705L406.56 469.501L477.762 276.187Z" fill="#1D1D1B"/>
<path d="M476.289 275.559L391.57 451.101L391.025 450.84L476.289 275.559Z" fill="#1D1D1B"/>
<path d="M474.888 274.788L370.783 444.813L370.271 444.503L474.888 274.788Z" fill="#1D1D1B"/>
<path d="M473.573 273.885L354.38 430.983L353.899 430.618L473.573 273.885Z" fill="#1D1D1B"/>
<path d="M472.349 272.857L328.709 427.407L328.271 426.997L472.349 272.857Z" fill="#1D1D1B"/>
<path d="M471.232 271.711L320.212 404.809L319.811 404.356L471.232 271.711Z" fill="#1D1D1B"/>
<path d="M470.243 270.457L324.225 375.348L323.872 374.858L470.243 270.457Z" fill="#1D1D1B"/>
<path d="M469.372 269.118L309.828 361.158L309.53 360.641L469.372 269.118Z" fill="#1D1D1B"/>
<path d="M468.644 267.695L297.346 344.938L297.1 344.388L468.644 267.695Z" fill="#1D1D1B"/>
<path d="M468.06 266.212L307.097 320.3L306.909 319.734L468.06 266.212Z" fill="#1D1D1B"/>
<path d="M467.63 264.671L276.34 308.329L276.206 307.739L467.63 264.671Z" fill="#1D1D1B"/>
<path d="M467.362 263.096L267.855 288.115L267.782 287.528L467.362 263.096Z" fill="#1D1D1B"/>
<path d="M467.241 261.503L280.937 266.223L280.925 265.621L467.241 261.503Z" fill="#1D1D1B"/>
<path d="M467.284 259.909L275.162 245.608L275.208 245.015L467.284 259.909Z" fill="#1D1D1B"/>
<path d="M467.478 258.326L270.169 223.662L270.276 223.065L467.478 258.326Z" fill="#1D1D1B"/>
<path d="M467.838 256.77L284.271 205.283L284.432 204.708L467.838 256.77Z" fill="#1D1D1B"/>
<path d="M468.346 255.255L276.093 179.995L276.312 179.438L468.346 255.255Z" fill="#1D1D1B"/>
<path d="M469.006 253.8L282.998 158.67L283.275 158.135L469.006 253.8Z" fill="#1D1D1B"/>
<path d="M469.807 252.414L302.47 144.622L302.796 144.12L469.807 252.414Z" fill="#1D1D1B"/>
<path d="M470.748 251.125L315.67 127.784L316.048 127.312L470.748 251.125Z" fill="#1D1D1B"/>
<path d="M471.801 249.926L325.884 107.986L326.304 107.558L471.801 249.926Z" fill="#1D1D1B"/>
<path d="M472.973 248.841L345.143 96.9498L345.606 96.5635L472.973 248.841Z" fill="#1D1D1B"/>
<path d="M474.246 247.87L359.792 80.5271L360.286 80.1895L474.246 247.87Z" fill="#1D1D1B"/>
<path d="M475.61 247.036L390.593 91.5642L391.116 91.2783L475.61 247.036Z" fill="#1D1D1B"/>
<path d="M477.053 246.34L406.536 79.8582L407.093 79.624L477.053 246.34Z" fill="#1D1D1B"/>
<path d="M478.557 245.799L422.336 64.5993L422.909 64.4229L478.557 245.799Z" fill="#1D1D1B"/>
<path d="M480.103 245.401L440.511 51.1167L441.105 50.998L480.103 245.401Z" fill="#1D1D1B"/>
<path d="M481.687 245.169L461.935 50.8332L462.531 50.7754L481.687 245.169Z" fill="#1D1D1B"/>
<path d="M483.282 245.09L482.983 76.29H483.58L483.282 245.09Z" fill="#1D1D1B"/>
<path d="M498.981 45.2351C499.377 41.4515 502.772 38.705 506.559 39.1004C510.346 39.4958 513.095 42.8871 512.699 46.6708C512.303 50.4544 508.909 53.2009 505.122 52.8055C501.335 52.4101 498.585 49.0188 498.981 45.2351Z" fill="#34A741"/>
<path d="M521.266 66.3729C521.522 65.1319 522.739 64.332 523.981 64.5905C525.224 64.846 526.024 66.0627 525.765 67.3036C525.51 68.5446 524.292 69.3445 523.05 69.0859C521.808 68.8305 521.007 67.6138 521.266 66.3729Z" fill="#1D1D1B"/>
<path d="M541.877 58.9547C542.635 56.5336 545.216 55.1862 547.639 55.9466C550.063 56.704 551.411 59.2832 550.65 61.7043C549.892 64.1253 547.311 65.4727 544.887 64.7123C542.464 63.955 541.115 61.3758 541.877 58.9547Z" fill="#1D1D1B"/>
<path d="M569.922 52.4435C570.421 51.2786 571.77 50.7342 572.939 51.233C574.105 51.7318 574.65 53.0792 574.15 54.2471C573.651 55.412 572.302 55.9565 571.133 55.4577C569.967 54.9589 569.422 53.6115 569.922 52.4435Z" fill="#1D1D1B"/>
<path d="M592.017 54.158C593.241 51.9346 596.036 51.1256 598.261 52.3483C600.487 53.571 601.297 56.3631 600.073 58.5865C598.849 60.8098 596.054 61.6189 593.829 60.3962C591.603 59.1735 590.793 56.3814 592.017 54.158Z" fill="#1D1D1B"/>
<path d="M602.673 95.871C604.113 93.7815 603.586 90.9224 601.494 89.4838C599.403 88.0451 596.541 88.5713 595.101 90.6609C593.661 92.7504 594.188 95.6094 596.279 97.0481C598.371 98.4867 601.233 97.9606 602.673 95.871Z" fill="#34A741"/>
<path d="M621.855 93.9682C622.674 93.001 624.126 92.8793 625.094 93.6975C626.063 94.5157 626.184 95.9665 625.365 96.9337C624.546 97.9009 623.094 98.0226 622.126 97.2044C621.158 96.3862 621.036 94.9354 621.855 93.9682Z" fill="#1D1D1B"/>
<path d="M636.374 106.775C638.197 105.01 641.111 105.059 642.873 106.881C644.639 108.703 644.59 111.614 642.767 113.375C640.943 115.139 638.03 115.09 636.267 113.268C634.501 111.446 634.55 108.536 636.374 106.775Z" fill="#1D1D1B"/>
<path d="M648.314 127.794C649.309 127.007 650.755 127.177 651.544 128.171C652.332 129.166 652.162 130.611 651.166 131.399C650.171 132.186 648.725 132.016 647.936 131.021C647.148 130.027 647.318 128.582 648.314 127.794Z" fill="#1D1D1B"/>
<path d="M663.354 143.21C664.422 142.526 665.844 142.839 666.529 143.907C667.214 144.974 666.9 146.395 665.832 147.079C664.763 147.763 663.341 147.45 662.656 146.383C661.971 145.315 662.285 143.895 663.354 143.21Z" fill="#1D1D1B"/>
<path d="M678.329 157.027C680.594 155.877 683.361 156.78 684.509 159.043C685.66 161.306 684.755 164.071 682.49 165.218C680.225 166.367 677.458 165.464 676.31 163.201C675.16 160.938 676.064 158.173 678.329 157.027Z" fill="#1D1D1B"/>
<path d="M676.773 183.644C677.957 183.184 679.287 183.771 679.747 184.955C680.207 186.138 679.619 187.467 678.435 187.926C677.251 188.385 675.92 187.798 675.461 186.615C675.001 185.432 675.589 184.103 676.773 183.644Z" fill="#1D1D1B"/>
<path d="M685.973 200.203C688.421 199.524 690.954 200.957 691.633 203.402C692.312 205.848 690.878 208.378 688.43 209.056C685.982 209.735 683.449 208.302 682.771 205.857C682.092 203.411 683.526 200.881 685.973 200.203Z" fill="#1D1D1B"/>
<path d="M672.611 223.825C675.113 223.393 677.491 225.072 677.923 227.569C678.356 230.069 676.675 232.444 674.176 232.876C671.673 233.308 669.296 231.629 668.863 229.132C668.431 226.632 670.111 224.256 672.611 223.825Z" fill="#1D1D1B"/>
<path d="M689.237 244.146C690.503 244.054 691.602 245.009 691.693 246.272C691.785 247.537 690.829 248.635 689.565 248.726C688.299 248.817 687.2 247.862 687.109 246.6C687.017 245.335 687.973 244.237 689.237 244.146Z" fill="#1D1D1B"/>
<path d="M704.413 262.822C706.952 262.895 708.949 265.009 708.879 267.543C708.806 270.079 706.69 272.074 704.151 272.005C701.612 271.932 699.615 269.818 699.685 267.284C699.758 264.747 701.874 262.752 704.41 262.822H704.413Z" fill="#1D1D1B"/>
<path d="M696.543 283.944C699.061 284.269 700.838 286.572 700.516 289.087C700.19 291.603 697.885 293.379 695.368 293.057C692.85 292.731 691.072 290.429 691.395 287.913C691.721 285.398 694.025 283.622 696.543 283.944Z" fill="#1D1D1B"/>
<path d="M688.866 306.368C690.102 306.654 690.872 307.889 690.586 309.124C690.3 310.359 689.064 311.128 687.828 310.842C686.592 310.556 685.821 309.322 686.108 308.087C686.394 306.852 687.63 306.082 688.866 306.368Z" fill="#1D1D1B"/>
<path d="M665.445 318.088C667.85 318.903 669.134 321.513 668.319 323.916C667.503 326.318 664.891 327.602 662.485 326.787C660.08 325.972 658.796 323.362 659.612 320.959C660.427 318.556 663.04 317.273 665.445 318.088Z" fill="#1D1D1B"/>
<path d="M678.822 342.46C682.289 344.036 683.82 348.124 682.24 351.585C680.663 355.046 676.572 356.579 673.107 355.001C669.643 353.425 668.108 349.337 669.688 345.876C671.265 342.415 675.357 340.882 678.822 342.46Z" fill="#34A741"/>
<path d="M655.572 358.572C656.668 359.21 657.042 360.616 656.403 361.711C655.763 362.806 654.357 363.18 653.261 362.541C652.165 361.902 651.791 360.497 652.43 359.402C653.069 358.307 654.476 357.933 655.572 358.572Z" fill="#1D1D1B"/>
<path d="M640.773 369.318C642.831 370.806 643.291 373.677 641.802 375.733C640.314 377.789 637.44 378.248 635.382 376.761C633.324 375.274 632.864 372.402 634.353 370.346C635.841 368.29 638.715 367.831 640.773 369.318Z" fill="#1D1D1B"/>
<path d="M648.341 404.473C649.291 405.315 649.377 406.766 648.533 407.715C647.69 408.664 646.238 408.749 645.288 407.906C644.338 407.064 644.253 405.613 645.096 404.664C645.939 403.715 647.392 403.63 648.341 404.473Z" fill="#1D1D1B"/>
<path d="M640.286 424.409C642.006 426.273 641.891 429.181 640.024 430.899C638.158 432.618 635.248 432.502 633.528 430.638C631.808 428.773 631.923 425.866 633.79 424.147C635.656 422.429 638.566 422.544 640.286 424.409Z" fill="#1D1D1B"/>
<path d="M608.862 423.928C609.626 424.941 609.422 426.383 608.408 427.143C607.394 427.903 605.951 427.703 605.19 426.69C604.426 425.677 604.63 424.235 605.644 423.475C606.658 422.711 608.101 422.915 608.862 423.928Z" fill="#1D1D1B"/>
<path d="M600.186 450.057C601.681 448.007 601.229 445.134 599.177 443.641C597.125 442.147 594.25 442.599 592.755 444.649C591.26 446.699 591.712 449.572 593.764 451.065C595.816 452.559 598.692 452.107 600.186 450.057Z" fill="#34A741"/>
<path d="M567.537 426.492C568.633 428.779 567.662 431.523 565.373 432.618C563.083 433.713 560.337 432.742 559.241 430.455C558.145 428.168 559.117 425.424 561.406 424.329C563.695 423.234 566.441 424.205 567.537 426.492Z" fill="#1D1D1B"/>
<path d="M557.921 460.931C558.353 462.124 557.732 463.441 556.538 463.873C555.345 464.304 554.027 463.684 553.595 462.492C553.162 461.299 553.783 459.982 554.977 459.551C556.17 459.119 557.488 459.739 557.921 460.931Z" fill="#1D1D1B"/>
<path d="M539.636 465.805C540.257 468.266 538.762 470.763 536.302 471.38C533.84 472.001 531.34 470.507 530.722 468.05C530.101 465.589 531.596 463.092 534.056 462.474C536.519 461.854 539.018 463.347 539.636 465.805Z" fill="#1D1D1B"/>
<path d="M517.266 458.919C517.637 461.428 515.902 463.764 513.393 464.135C510.882 464.506 508.544 462.773 508.172 460.266C507.801 457.757 509.536 455.421 512.045 455.05C514.556 454.679 516.894 456.413 517.266 458.919Z" fill="#1D1D1B"/>
<path d="M496.357 487.704C496.418 488.969 495.438 490.046 494.171 490.107C492.905 490.168 491.827 489.188 491.766 487.923C491.705 486.658 492.686 485.581 493.952 485.52C495.219 485.459 496.296 486.439 496.357 487.704Z" fill="#1D1D1B"/>
<path d="M466.726 489.665C466.592 492.199 468.544 494.358 471.077 494.492C473.61 494.626 475.774 492.676 475.908 490.146C476.042 487.612 474.091 485.453 471.558 485.319C469.022 485.185 466.86 487.135 466.726 489.665Z" fill="#1D1D1B"/>
<path d="M446.95 483.153C446.758 484.406 447.619 485.58 448.874 485.772C450.128 485.963 451.303 485.103 451.495 483.85C451.687 482.596 450.825 481.422 449.571 481.231C448.316 481.039 447.141 481.9 446.95 483.153Z" fill="#1D1D1B"/>
<path d="M426.574 463.161C425.941 465.619 427.423 468.122 429.883 468.752C432.343 469.381 434.849 467.903 435.479 465.445C436.112 462.988 434.629 460.485 432.169 459.855C429.71 459.222 427.204 460.704 426.574 463.161Z" fill="#1D1D1B"/>
<path d="M400.48 466.908C399.171 470.481 401.007 474.439 404.584 475.746C408.161 477.054 412.122 475.22 413.431 471.646C414.74 468.076 412.905 464.116 409.327 462.808C405.75 461.5 401.79 463.334 400.48 466.908Z" fill="#34A741"/>
<path d="M389.277 449.864C388.723 451.004 389.201 452.379 390.346 452.932C391.487 453.486 392.863 453.009 393.417 451.865C393.972 450.724 393.494 449.35 392.349 448.796C391.204 448.242 389.831 448.72 389.277 449.864Z" fill="#1D1D1B"/>
<path d="M366.73 442.059C365.403 444.221 366.079 447.05 368.243 448.376C370.408 449.702 373.239 449.027 374.567 446.864C375.894 444.702 375.218 441.873 373.054 440.547C370.889 439.221 368.058 439.896 366.73 442.059Z" fill="#1D1D1B"/>
<path d="M352.379 429.318C351.612 430.328 351.807 431.77 352.818 432.536C353.828 433.303 355.271 433.108 356.039 432.098C356.806 431.088 356.611 429.647 355.6 428.88C354.589 428.114 353.146 428.308 352.379 429.318Z" fill="#1D1D1B"/>
<path d="M325.281 423.902C323.552 425.757 323.656 428.665 325.513 430.392C327.37 432.12 330.28 432.016 332.009 430.161C333.739 428.306 333.635 425.398 331.778 423.67C329.921 421.943 327.011 422.046 325.281 423.902Z" fill="#1D1D1B"/>
<path d="M318.581 402.78C317.628 403.617 317.534 405.07 318.374 406.022C319.211 406.974 320.666 407.069 321.619 406.229C322.572 405.393 322.667 403.939 321.826 402.987C320.989 402.035 319.534 401.941 318.581 402.78Z" fill="#1D1D1B"/>
<path d="M322.803 373.168C321.771 373.907 321.533 375.343 322.273 376.374C323.013 377.405 324.45 377.642 325.482 376.903C326.514 376.164 326.752 374.729 326.012 373.698C325.272 372.667 323.835 372.429 322.803 373.168Z" fill="#1D1D1B"/>
<path d="M307.587 356.802C305.386 358.067 304.628 360.875 305.895 363.074C307.161 365.273 309.971 366.03 312.172 364.765C314.373 363.5 315.131 360.692 313.865 358.493C312.598 356.294 309.788 355.537 307.587 356.802Z" fill="#34A741"/>
<path d="M296.384 342.518C295.227 343.038 294.71 344.397 295.23 345.553C295.751 346.709 297.112 347.226 298.269 346.706C299.426 346.186 299.943 344.826 299.423 343.671C298.902 342.515 297.541 341.998 296.384 342.518Z" fill="#1D1D1B"/>
<path d="M305.764 315.586C303.356 316.389 302.056 318.992 302.863 321.398C303.666 323.804 306.272 325.103 308.681 324.297C311.089 323.494 312.389 320.89 311.582 318.484C310.778 316.078 308.172 314.78 305.764 315.586Z" fill="#1D1D1B"/>
<path d="M275.877 305.768C274.638 306.048 273.862 307.28 274.145 308.515C274.425 309.753 275.658 310.528 276.894 310.245C278.133 309.966 278.909 308.734 278.626 307.499C278.346 306.261 277.113 305.485 275.877 305.768Z" fill="#1D1D1B"/>
<path d="M267.31 280.943C263.532 281.411 260.847 284.851 261.316 288.629C261.785 292.406 265.228 295.086 269.009 294.618C272.787 294.149 275.472 290.709 275.003 286.932C274.535 283.154 271.091 280.474 267.31 280.943Z" fill="#34A741"/>
<path d="M280.991 263.619C279.722 263.649 278.717 264.702 278.748 265.97C278.778 267.238 279.832 268.242 281.101 268.212C282.371 268.181 283.375 267.129 283.345 265.86C283.314 264.592 282.261 263.588 280.991 263.619Z" fill="#1D1D1B"/>
<path d="M275.761 240.745C273.228 240.553 271.021 242.448 270.829 244.976C270.637 247.503 272.534 249.711 275.064 249.903C277.594 250.095 279.804 248.2 279.996 245.672C280.188 243.145 278.291 240.936 275.761 240.745Z" fill="#1D1D1B"/>
<path d="M270.738 221.122C269.487 220.9 268.293 221.733 268.074 222.983C267.855 224.233 268.686 225.426 269.937 225.645C271.189 225.867 272.382 225.033 272.601 223.783C272.82 222.533 271.989 221.341 270.738 221.122Z" fill="#1D1D1B"/>
<path d="M285.82 200.636C283.375 199.946 280.836 201.366 280.145 203.809C279.454 206.251 280.876 208.788 283.32 209.478C285.762 210.169 288.304 208.748 288.995 206.306C289.686 203.863 288.264 201.327 285.82 200.636Z" fill="#1D1D1B"/>
<path d="M278.099 175.525C275.737 174.597 273.067 175.756 272.138 178.116C271.21 180.477 272.37 183.144 274.732 184.072C277.095 184.999 279.765 183.84 280.693 181.48C281.622 179.12 280.462 176.453 278.099 175.525Z" fill="#1D1D1B"/>
<path d="M284.289 156.413C283.159 155.832 281.774 156.279 281.192 157.407C280.611 158.536 281.058 159.92 282.188 160.501C283.317 161.082 284.703 160.635 285.284 159.506C285.866 158.378 285.418 156.994 284.289 156.413Z" fill="#1D1D1B"/>
<path d="M305.322 140.64C303.191 139.262 300.344 139.874 298.965 142.003C297.586 144.132 298.198 146.976 300.329 148.353C302.46 149.731 305.307 149.12 306.686 146.991C308.065 144.862 307.453 142.018 305.322 140.64Z" fill="#1D1D1B"/>
<path d="M317.384 125.825C316.392 125.034 314.946 125.195 314.154 126.187C313.363 127.178 313.524 128.623 314.516 129.414C315.509 130.205 316.955 130.044 317.746 129.052C318.538 128.061 318.377 126.616 317.384 125.825Z" fill="#1D1D1B"/>
<path d="M329.47 104.645C327.653 102.872 324.743 102.908 322.971 104.721C321.199 106.534 321.232 109.444 323.047 111.215C324.864 112.988 327.775 112.951 329.547 111.139C331.321 109.323 331.285 106.415 329.47 104.645Z" fill="#34A741"/>
<path d="M347.21 95.3682C346.394 94.3949 344.945 94.2702 343.971 95.0823C342.996 95.8974 342.871 97.3452 343.684 98.3185C344.5 99.2918 345.949 99.4165 346.924 98.6044C347.898 97.7892 348.023 96.3415 347.21 95.3682Z" fill="#1D1D1B"/>
<path d="M363.969 77.9611C362.541 75.8654 359.679 75.3241 357.582 76.7505C355.484 78.177 354.942 81.0361 356.37 83.1317C357.798 85.2273 360.659 85.7687 362.757 84.3422C364.855 82.9157 365.397 80.0567 363.969 77.9611Z" fill="#1D1D1B"/>
<path d="M395.003 89.4265C393.789 87.2001 390.997 86.3758 388.769 87.5864C386.54 88.7969 385.715 91.589 386.927 93.8154C388.141 96.0419 390.933 96.8661 393.162 95.6556C395.39 94.442 396.215 91.6529 395.003 89.4265Z" fill="#1D1D1B"/>
<path d="M408.977 78.9532C408.484 77.7853 407.135 77.2347 405.966 77.7275C404.797 78.2202 404.246 79.5676 404.739 80.7356C405.233 81.9035 406.581 82.454 407.75 81.9613C408.919 81.4686 409.47 80.1212 408.977 78.9532Z" fill="#1D1D1B"/>
<path d="M427.083 63.3747C426.334 60.9506 423.761 59.591 421.335 60.3392C418.908 61.0875 417.548 63.6576 418.296 66.0817C419.045 68.5058 421.618 69.8654 424.044 69.1171C426.471 68.3689 427.831 65.7988 427.083 63.3747Z" fill="#1D1D1B"/>
<path d="M443.083 50.714C442.831 49.4701 441.619 48.6671 440.374 48.9165C439.129 49.1689 438.325 50.3795 438.575 51.6235C438.827 52.8675 440.039 53.6704 441.284 53.421C442.529 53.1686 443.333 51.958 443.083 50.714Z" fill="#1D1D1B"/>
<path d="M466.83 50.5758C466.577 48.0513 464.324 46.2111 461.797 46.4636C459.271 46.716 457.429 48.9668 457.681 51.4913C457.934 54.0157 460.187 55.8559 462.714 55.6034C465.241 55.351 467.082 53.1002 466.83 50.5758Z" fill="#1D1D1B"/>
<path d="M487.878 76.5205C487.878 73.9838 485.82 71.9277 483.281 71.9277C480.742 71.9277 478.684 73.9838 478.684 76.5205C478.684 79.0571 480.742 81.1132 483.281 81.1132C485.82 81.1132 487.878 79.0571 487.878 76.5205Z" fill="#1D1D1B"/>
<path d="M496.677 101.197C497.152 97.4222 500.601 94.7456 504.382 95.2231C508.16 95.6976 510.839 99.1437 510.361 102.921C509.886 106.696 506.437 109.372 502.656 108.895C498.878 108.42 496.199 104.974 496.677 101.197Z" fill="#E95022"/>
<path d="M515.271 124.023C515.579 122.791 516.824 122.043 518.057 122.347C519.29 122.654 520.039 123.898 519.734 125.13C519.427 126.362 518.182 127.11 516.949 126.806C515.716 126.499 514.967 125.255 515.271 124.023Z" fill="#1D1D1B"/>
<path d="M529.952 125.858C530.85 123.486 533.504 122.29 535.879 123.191C538.254 124.088 539.45 126.74 538.549 129.112C537.651 131.485 534.996 132.68 532.621 131.78C530.247 130.883 529.05 128.23 529.952 125.858Z" fill="#1D1D1B"/>
<path d="M543.368 141.683C543.956 140.558 545.344 140.123 546.47 140.707C547.597 141.294 548.032 142.681 547.445 143.806C546.857 144.931 545.469 145.366 544.342 144.779C543.216 144.192 542.781 142.805 543.365 141.68L543.368 141.683Z" fill="#1D1D1B"/>
<path d="M560.471 140.63C561.902 138.535 564.764 137.996 566.862 139.426C568.959 140.855 569.498 143.714 568.067 145.81C566.636 147.906 563.775 148.444 561.677 147.014C559.579 145.585 559.041 142.726 560.471 140.63Z" fill="#1D1D1B"/>
<path d="M587.877 131.451C590.379 128.583 594.739 128.288 597.607 130.788C600.478 133.289 600.773 137.644 598.27 140.509C595.768 143.377 591.408 143.672 588.541 141.172C585.67 138.672 585.374 134.317 587.877 131.451Z" fill="#E95022"/>
<path d="M582.683 165.713C584.568 164.012 587.475 164.158 589.177 166.041C590.879 167.924 590.732 170.828 588.848 172.529C586.964 174.229 584.056 174.083 582.354 172.2C580.653 170.317 580.799 167.413 582.683 165.713Z" fill="#1D1D1B"/>
<path d="M615.023 162.73C617.094 161.264 619.964 161.754 621.432 163.822C622.899 165.89 622.409 168.758 620.339 170.224C618.269 171.69 615.398 171.201 613.93 169.132C612.463 167.064 612.953 164.196 615.023 162.73Z" fill="#1D1D1B"/>
<path d="M635.664 176.208C636.779 175.603 638.176 176.013 638.782 177.13C639.388 178.243 638.977 179.639 637.859 180.244C636.745 180.849 635.348 180.439 634.742 179.323C634.136 178.206 634.547 176.813 635.664 176.208Z" fill="#1D1D1B"/>
<path d="M609.401 206.373C611.76 205.433 614.433 206.58 615.374 208.937C616.315 211.294 615.167 213.965 612.808 214.905C610.448 215.845 607.775 214.698 606.834 212.341C605.894 209.984 607.041 207.313 609.401 206.373Z" fill="#1D1D1B"/>
<path d="M631.15 217.33C633.604 216.676 636.124 218.13 636.779 220.582C637.434 223.033 635.978 225.552 633.525 226.206C631.071 226.86 628.55 225.406 627.895 222.954C627.241 220.503 628.696 217.984 631.15 217.33Z" fill="#E95022"/>
<path d="M622.066 239.303C623.323 239.123 624.489 239.993 624.669 241.249C624.848 242.505 623.977 243.67 622.72 243.85C621.463 244.029 620.3 243.159 620.117 241.903C619.938 240.647 620.808 239.482 622.066 239.303Z" fill="#1D1D1B"/>
<path d="M643.906 253.037C646.445 252.976 648.552 254.98 648.616 257.517C648.677 260.053 646.67 262.158 644.131 262.222C641.592 262.283 639.486 260.278 639.422 257.742C639.361 255.205 641.367 253.1 643.906 253.037Z" fill="#1D1D1B"/>
<path d="M641.071 274.089C642.335 274.208 643.263 275.327 643.145 276.593C643.026 277.855 641.906 278.782 640.639 278.664C639.373 278.545 638.447 277.426 638.566 276.161C638.685 274.898 639.805 273.971 641.071 274.089Z" fill="#1D1D1B"/>
<path d="M626.117 287.6C628.599 288.136 630.179 290.578 629.643 293.06C629.107 295.539 626.662 297.117 624.178 296.582C621.697 296.047 620.117 293.604 620.653 291.123C621.189 288.644 623.633 287.065 626.117 287.6Z" fill="#1D1D1B"/>
<path d="M613.946 303.912C615.145 304.322 615.785 305.63 615.374 306.828C614.963 308.027 613.654 308.665 612.454 308.255C611.255 307.844 610.615 306.536 611.026 305.338C611.437 304.14 612.746 303.501 613.946 303.912Z" fill="#1D1D1B"/>
<path d="M635.329 327.076C638.761 328.728 640.201 332.846 638.547 336.274C636.894 339.702 632.772 341.14 629.341 339.489C625.91 337.837 624.47 333.719 626.123 330.291C627.776 326.863 631.898 325.425 635.329 327.076Z" fill="#E95022"/>
<path d="M602.091 331.712C604.231 333.075 604.861 335.916 603.495 338.054C602.131 340.192 599.287 340.822 597.147 339.456C595.007 338.093 594.377 335.252 595.744 333.114C597.107 330.976 599.951 330.346 602.091 331.712Z" fill="#1D1D1B"/>
<path d="M602.402 355.92C603.385 356.723 603.528 358.171 602.725 359.153C601.921 360.136 600.472 360.279 599.488 359.476C598.505 358.673 598.362 357.225 599.166 356.242C599.969 355.26 601.418 355.117 602.402 355.92Z" fill="#1D1D1B"/>
<path d="M592.246 367.903C594.006 369.731 593.951 372.639 592.121 374.397C590.291 376.155 587.381 376.1 585.621 374.272C583.862 372.444 583.916 369.536 585.746 367.778C587.576 366.02 590.486 366.075 592.246 367.903Z" fill="#1D1D1B"/>
<path d="M588.087 392.119C589.619 394.142 589.22 397.022 587.195 398.552C585.171 400.082 582.288 399.684 580.756 397.661C579.225 395.638 579.624 392.758 581.648 391.228C583.673 389.698 586.556 390.097 588.087 392.119Z" fill="#1D1D1B"/>
<path d="M554.365 373.603C555.646 375.793 554.91 378.606 552.718 379.887C550.526 381.167 547.71 380.431 546.428 378.241C545.146 376.051 545.883 373.238 548.075 371.957C550.267 370.677 553.083 371.413 554.365 373.603Z" fill="#1D1D1B"/>
<path d="M544.488 400.824C545.584 400.184 545.952 398.777 545.311 397.683C544.669 396.588 543.261 396.22 542.166 396.861C541.07 397.502 540.702 398.909 541.344 400.003C541.985 401.098 543.393 401.465 544.488 400.824Z" fill="#1D1D1B"/>
<path d="M534.555 415.241C535.289 417.669 533.91 420.233 531.48 420.966C529.051 421.699 526.484 420.321 525.751 417.894C525.017 415.467 526.396 412.903 528.826 412.17C531.255 411.437 533.821 412.814 534.555 415.241Z" fill="#E95022"/>
<path d="M513.083 403.528C513.524 406.025 511.853 408.407 509.35 408.848C506.851 409.286 504.467 407.619 504.025 405.119C503.587 402.622 505.255 400.24 507.758 399.799C510.257 399.361 512.641 401.028 513.083 403.528Z" fill="#1D1D1B"/>
<path d="M493.349 398.203C493.419 399.469 492.448 400.554 491.182 400.624C489.915 400.694 488.828 399.724 488.758 398.459C488.688 397.194 489.66 396.108 490.926 396.038C492.192 395.968 493.279 396.938 493.349 398.203Z" fill="#1D1D1B"/>
<path d="M469.022 417.256C468.863 419.787 470.788 421.97 473.324 422.129C475.856 422.287 478.042 420.364 478.201 417.831C478.359 415.3 476.435 413.116 473.899 412.958C471.366 412.8 469.18 414.722 469.022 417.256Z" fill="#1D1D1B"/>
<path d="M455.164 390.168C454.707 392.663 456.36 395.056 458.857 395.512C461.353 395.969 463.749 394.317 464.206 391.823C464.662 389.329 463.009 386.935 460.513 386.479C458.016 386.023 455.62 387.674 455.164 390.168Z" fill="#1D1D1B"/>
<path d="M429.088 429.541C428.714 430.751 429.393 432.038 430.607 432.412C431.822 432.786 433.107 432.108 433.481 430.894C433.856 429.683 433.177 428.397 431.962 428.023C430.751 427.649 429.463 428.327 429.088 429.541Z" fill="#1D1D1B"/>
<path d="M414.451 405.375C413.422 407.693 414.466 410.409 416.786 411.437C419.106 412.465 421.824 411.422 422.853 409.104C423.882 406.786 422.838 404.07 420.518 403.042C418.199 402.014 415.48 403.058 414.451 405.375Z" fill="#E95022"/>
<path d="M389.867 409.766C388.571 411.947 389.289 414.767 391.469 416.062C393.652 417.358 396.474 416.64 397.771 414.463C399.068 412.282 398.349 409.462 396.169 408.167C393.989 406.871 391.164 407.589 389.867 409.766Z" fill="#1D1D1B"/>
<path d="M387.798 378.422C386.251 380.432 386.632 383.318 388.644 384.86C390.656 386.403 393.545 386.025 395.089 384.015C396.635 382.004 396.255 379.118 394.243 377.576C392.23 376.031 389.341 376.411 387.798 378.422Z" fill="#1D1D1B"/>
<path d="M388.607 355.318C387.721 356.224 387.74 357.681 388.647 358.566C389.554 359.451 391.012 359.433 391.898 358.527C392.784 357.62 392.766 356.163 391.859 355.278C390.952 354.393 389.493 354.411 388.607 355.318Z" fill="#1D1D1B"/>
<path d="M372.871 344.806C370.895 346.4 370.587 349.293 372.183 351.266C373.778 353.24 376.673 353.548 378.649 351.954C380.625 350.36 380.932 347.468 379.337 345.494C377.742 343.52 374.847 343.212 372.871 344.806Z" fill="#1D1D1B"/>
<path d="M351.475 341.618C350.401 342.293 350.075 343.71 350.751 344.784C351.427 345.858 352.845 346.183 353.92 345.508C354.995 344.833 355.32 343.415 354.645 342.342C353.969 341.268 352.55 340.943 351.475 341.618Z" fill="#1D1D1B"/>
<path d="M345.67 321.651C343.374 322.737 342.397 325.478 343.484 327.768C344.571 330.058 347.314 331.038 349.606 329.952C351.902 328.866 352.879 326.126 351.792 323.835C350.705 321.542 347.962 320.566 345.67 321.651Z" fill="#1D1D1B"/>
<path d="M331.215 310.181C330.013 310.586 329.364 311.887 329.769 313.089C330.174 314.29 331.477 314.938 332.679 314.533C333.882 314.129 334.53 312.827 334.125 311.626C333.721 310.424 332.418 309.776 331.215 310.181Z" fill="#1D1D1B"/>
<path d="M351.572 281.964C347.843 282.74 345.45 286.39 346.229 290.116C347.006 293.842 350.659 296.232 354.388 295.454C358.118 294.678 360.51 291.028 359.731 287.302C358.955 283.576 355.301 281.186 351.572 281.964Z" fill="#E95022"/>
<path d="M305.039 281.716C302.509 281.941 300.278 280.074 300.053 277.546C299.827 275.019 301.697 272.789 304.226 272.564C306.756 272.339 308.988 274.207 309.213 276.734C309.438 279.262 307.569 281.491 305.039 281.716Z" fill="#1D1D1B"/>
<path d="M309.572 253.809C308.303 253.769 307.243 254.764 307.204 256.032C307.164 257.3 308.16 258.359 309.429 258.398C310.699 258.438 311.758 257.443 311.798 256.175C311.837 254.907 310.842 253.848 309.572 253.809Z" fill="#1D1D1B"/>
<path d="M330.922 233.917C328.411 233.54 326.07 235.264 325.689 237.774C325.312 240.283 327.038 242.622 329.549 242.999C332.061 243.376 334.402 241.652 334.78 239.142C335.157 236.633 333.431 234.294 330.919 233.917H330.922Z" fill="#1D1D1B"/>
<path d="M316.081 210.849C313.634 210.177 311.104 211.615 310.431 214.061C309.758 216.506 311.198 219.034 313.646 219.706C316.094 220.378 318.623 218.939 319.296 216.494C319.969 214.049 318.529 211.521 316.081 210.849Z" fill="#1D1D1B"/>
<path d="M325.007 194.648C323.832 194.171 322.489 194.734 322.011 195.911C321.533 197.085 322.097 198.426 323.275 198.904C324.45 199.381 325.793 198.818 326.271 197.641C326.748 196.467 326.185 195.126 325.007 194.648Z" fill="#1D1D1B"/>
<path d="M366.377 191.66C364.155 190.435 361.357 191.238 360.13 193.458C358.903 195.678 359.707 198.474 361.929 199.699C364.152 200.925 366.95 200.122 368.177 197.902C369.403 195.681 368.6 192.886 366.377 191.66Z" fill="#E95022"/>
<path d="M356.154 164.465C354.093 162.984 351.219 163.453 349.737 165.512C348.254 167.571 348.723 170.442 350.784 171.923C352.845 173.404 355.719 172.936 357.202 170.877C358.684 168.818 358.215 165.947 356.154 164.465Z" fill="#1D1D1B"/>
<path d="M368.886 153.577C367.951 152.72 366.496 152.783 365.637 153.72C364.779 154.654 364.843 156.108 365.781 156.966C366.715 157.823 368.17 157.759 369.029 156.823C369.887 155.886 369.823 154.435 368.889 153.577H368.886Z" fill="#1D1D1B"/>
<path d="M385.901 144.812C385.073 143.85 383.621 143.741 382.658 144.568C381.696 145.396 381.587 146.846 382.415 147.807C383.243 148.769 384.695 148.878 385.657 148.051C386.619 147.223 386.729 145.773 385.901 144.812Z" fill="#1D1D1B"/>
<path d="M408.442 141.957C407.026 139.852 404.167 139.293 402.061 140.71C399.954 142.127 399.394 144.98 400.812 147.085C402.228 149.19 405.087 149.749 407.193 148.332C409.3 146.918 409.86 144.062 408.442 141.957Z" fill="#1D1D1B"/>
<path d="M418.147 124.284C416.99 122.027 414.217 121.136 411.958 122.292C409.699 123.448 408.807 126.219 409.964 128.476C411.121 130.732 413.894 131.624 416.153 130.468C418.412 129.312 419.304 126.541 418.147 124.284Z" fill="#1D1D1B"/>
<path d="M436.593 128.875C436.151 127.685 434.827 127.08 433.637 127.521C432.446 127.962 431.84 129.285 432.282 130.474C432.723 131.664 434.048 132.269 435.238 131.828C436.428 131.387 437.034 130.064 436.593 128.875Z" fill="#1D1D1B"/>
<path d="M455.73 127.408C455.133 124.942 452.649 123.427 450.183 124.02C447.714 124.616 446.198 127.098 446.791 129.562C447.388 132.029 449.872 133.543 452.338 132.95C454.807 132.354 456.323 129.872 455.73 127.408Z" fill="#1D1D1B"/>
<path d="M469.984 129.37C469.834 128.111 468.69 127.211 467.429 127.36C466.169 127.509 465.268 128.653 465.417 129.912C465.566 131.171 466.711 132.071 467.971 131.922C469.232 131.773 470.133 130.63 469.984 129.37Z" fill="#1D1D1B"/>
<path d="M485.711 105.679C485.711 104.411 484.682 103.383 483.413 103.383C482.143 103.383 481.114 104.411 481.114 105.679C481.114 106.947 482.143 107.976 483.413 107.976C484.682 107.976 485.711 106.947 485.711 105.679Z" fill="#1D1D1B"/>
<path d="M495.976 147.473C496.36 144.967 498.704 143.242 501.213 143.626C503.721 144.009 505.447 146.351 505.064 148.857C504.68 151.363 502.336 153.088 499.827 152.705C497.319 152.321 495.593 149.979 495.976 147.473Z" fill="#71509C"/>
<path d="M513.859 153.566C514.231 152.353 515.515 151.672 516.73 152.043C517.945 152.414 518.627 153.697 518.255 154.911C517.884 156.124 516.599 156.806 515.384 156.435C514.17 156.064 513.488 154.78 513.859 153.566Z" fill="#1D1D1B"/>
<path d="M523.69 165.391C524.779 163.1 527.522 162.124 529.815 163.213C532.107 164.302 533.084 167.042 531.995 169.333C530.905 171.623 528.162 172.599 525.869 171.51C523.577 170.421 522.6 167.681 523.69 165.391Z" fill="#1D1D1B"/>
<path d="M542.257 164.731C543.667 162.624 546.523 162.055 548.635 163.466C550.745 164.874 551.314 167.727 549.902 169.838C548.492 171.946 545.637 172.515 543.524 171.103C541.414 169.695 540.845 166.842 542.257 164.731Z" fill="#1D1D1B"/>
<path d="M555.634 177.786C556.486 176.846 557.938 176.773 558.879 177.624C559.82 178.476 559.893 179.927 559.04 180.867C558.188 181.806 556.736 181.879 555.795 181.028C554.854 180.176 554.781 178.725 555.634 177.786Z" fill="#1D1D1B"/>
<path d="M550.715 199.627C552.672 198.015 555.57 198.291 557.187 200.25C558.8 202.206 558.523 205.101 556.563 206.716C554.605 208.328 551.707 208.052 550.09 206.093C548.477 204.137 548.754 201.242 550.715 199.627Z" fill="#1D1D1B"/>
<path d="M572.902 198.976C576.162 197.008 580.4 198.054 582.37 201.309C584.34 204.566 583.292 208.8 580.035 210.768C576.774 212.736 572.537 211.69 570.567 208.435C568.597 205.181 569.644 200.944 572.902 198.976Z" fill="#71509C"/>
<path d="M575.161 220.094C576.33 219.605 577.679 220.152 578.169 221.323C578.659 222.491 578.111 223.838 576.939 224.328C575.77 224.818 574.421 224.27 573.931 223.099C573.441 221.928 573.989 220.584 575.161 220.094Z" fill="#1D1D1B"/>
<path d="M575.429 232.731C577.888 232.101 580.394 233.58 581.024 236.037C581.654 238.495 580.175 240.998 577.715 241.627C575.255 242.257 572.749 240.779 572.119 238.321C571.489 235.864 572.969 233.361 575.429 232.731Z" fill="#1D1D1B"/>
<path d="M575.067 249.107C576.33 248.973 577.459 249.888 577.593 251.148C577.727 252.41 576.811 253.538 575.551 253.672C574.287 253.806 573.158 252.89 573.024 251.631C572.89 250.369 573.806 249.241 575.067 249.107Z" fill="#1D1D1B"/>
<path d="M575.45 260.258C577.986 260.361 579.959 262.499 579.858 265.033C579.755 267.566 577.614 269.537 575.078 269.437C572.542 269.334 570.57 267.195 570.67 264.662C570.774 262.128 572.914 260.157 575.45 260.258Z" fill="#1D1D1B"/>
<path d="M578.47 276.727C579.718 276.961 580.537 278.162 580.303 279.409C580.068 280.656 578.866 281.474 577.617 281.24C576.369 281.006 575.55 279.805 575.785 278.558C576.019 277.31 577.222 276.492 578.47 276.727Z" fill="#1D1D1B"/>
<path d="M569.553 286.025C571.952 286.852 573.228 289.468 572.4 291.864C571.572 294.261 568.954 295.536 566.555 294.708C564.156 293.881 562.88 291.265 563.708 288.869C564.536 286.472 567.154 285.197 569.553 286.025Z" fill="#71509C"/>
<path d="M585.938 309.147C588.191 310.315 589.07 313.088 587.901 315.339C586.732 317.59 583.956 318.469 581.703 317.301C579.45 316.133 578.57 313.359 579.739 311.108C580.908 308.858 583.685 307.979 585.938 309.147Z" fill="#1D1D1B"/>
<path d="M577.486 320.461C580.576 322.684 581.276 326.991 579.048 330.078C576.822 333.166 572.512 333.865 569.422 331.639C566.331 329.415 565.631 325.109 567.86 322.021C570.085 318.934 574.396 318.235 577.486 320.461Z" fill="#71509C"/>
<path d="M548.665 327.731C549.576 328.613 551.031 328.592 551.917 327.682C552.8 326.773 552.778 325.319 551.868 324.434C550.958 323.552 549.503 323.573 548.617 324.483C547.734 325.392 547.755 326.846 548.665 327.731Z" fill="#1D1D1B"/>
<path d="M541.563 333.266C542.336 334.273 542.144 335.715 541.137 336.487C540.129 337.26 538.686 337.068 537.913 336.062C537.139 335.055 537.331 333.613 538.339 332.841C539.347 332.068 540.79 332.26 541.563 333.266Z" fill="#1D1D1B"/>
<path d="M534.296 343.168C535.532 345.383 534.734 348.181 532.518 349.416C530.301 350.65 527.501 349.854 526.265 347.639C525.029 345.425 525.826 342.627 528.043 341.392C530.259 340.157 533.06 340.954 534.296 343.168Z" fill="#1D1D1B"/>
<path d="M530.436 372.446C531.337 374.818 530.14 377.47 527.766 378.368C525.391 379.268 522.736 378.073 521.838 375.7C520.937 373.328 522.134 370.676 524.508 369.778C526.883 368.878 529.537 370.073 530.436 372.446Z" fill="#1D1D1B"/>
<path d="M504.452 346.667C504.723 347.905 503.94 349.13 502.701 349.404C501.462 349.675 500.235 348.893 499.961 347.655C499.69 346.417 500.473 345.191 501.712 344.921C502.951 344.65 504.178 345.432 504.452 346.67V346.667Z" fill="#1D1D1B"/>
<path d="M494.128 349.586C494.308 352.117 492.399 354.313 489.866 354.492C487.333 354.672 485.135 352.765 484.956 350.234C484.776 347.704 486.685 345.508 489.218 345.328C491.751 345.149 493.949 347.056 494.128 349.586Z" fill="#1D1D1B"/>
<path d="M474.629 344.808C474.532 346.074 475.482 347.175 476.748 347.272C478.015 347.369 479.117 346.42 479.214 345.155C479.312 343.89 478.362 342.789 477.095 342.691C475.829 342.594 474.727 343.543 474.629 344.808Z" fill="#1D1D1B"/>
<path d="M453.769 371.057C453.212 373.533 454.767 375.99 457.242 376.547C459.718 377.104 462.18 375.549 462.738 373.077C463.295 370.604 461.739 368.143 459.264 367.587C456.789 367.03 454.326 368.584 453.769 371.057Z" fill="#1D1D1B"/>
<path d="M446.98 342.509C446.067 344.875 447.248 347.534 449.62 348.446C451.988 349.359 454.649 348.178 455.562 345.809C456.476 343.443 455.294 340.784 452.923 339.872C450.554 338.96 447.893 340.14 446.98 342.506V342.509Z" fill="#71509C"/>
<path d="M426.278 352.719C425.03 354.928 425.813 357.732 428.023 358.976C430.233 360.22 433.04 359.441 434.285 357.233C435.533 355.025 434.751 352.224 432.541 350.977C430.33 349.729 427.523 350.511 426.278 352.719Z" fill="#1D1D1B"/>
<path d="M430.535 325.328C429.755 326.329 429.938 327.773 430.943 328.549C431.944 329.328 433.39 329.145 434.166 328.141C434.946 327.141 434.763 325.696 433.759 324.92C432.757 324.142 431.311 324.324 430.535 325.328Z" fill="#1D1D1B"/>
<path d="M402.593 328.986C399.847 331.619 399.759 335.984 402.396 338.728C405.032 341.471 409.401 341.559 412.147 338.925C414.893 336.291 414.981 331.927 412.345 329.183C409.708 326.44 405.339 326.352 402.593 328.986Z" fill="#71509C"/>
<path d="M416.585 302.967C414.518 304.439 414.037 307.307 415.507 309.373C416.978 311.438 419.852 311.918 421.919 310.449C423.986 308.977 424.467 306.109 422.997 304.044C421.526 301.979 418.652 301.498 416.585 302.967Z" fill="#1D1D1B"/>
<path d="M376.71 310.469C374.451 311.625 373.556 314.393 374.713 316.65C375.87 318.906 378.64 319.801 380.899 318.645C383.158 317.489 384.053 314.721 382.896 312.464C381.739 310.208 378.969 309.313 376.71 310.469Z" fill="#1D1D1B"/>
<path d="M380.116 293.676C378.914 294.084 378.271 295.389 378.679 296.59C379.087 297.791 380.393 298.433 381.596 298.026C382.798 297.618 383.441 296.313 383.033 295.112C382.625 293.91 381.319 293.269 380.116 293.676Z" fill="#1D1D1B"/>
<path d="M384.053 274.612C381.556 275.068 379.9 277.462 380.36 279.959C380.82 282.456 383.212 284.107 385.712 283.648C388.208 283.192 389.864 280.798 389.405 278.301C388.945 275.804 386.552 274.153 384.056 274.612H384.053Z" fill="#1D1D1B"/>
<path d="M378.303 262.513C377.033 262.559 376.041 263.62 376.086 264.889C376.132 266.157 377.195 267.149 378.464 267.103C379.734 267.057 380.726 265.996 380.68 264.727C380.635 263.459 379.572 262.468 378.303 262.513Z" fill="#1D1D1B"/>
<path d="M399.524 247.188C397.001 246.908 394.727 248.724 394.446 251.245C394.166 253.766 395.984 256.039 398.508 256.318C401.031 256.598 403.306 254.782 403.586 252.261C403.866 249.739 402.048 247.467 399.524 247.188Z" fill="#71509C"/>
<path d="M387.749 231.31C385.292 230.665 382.781 232.134 382.135 234.586C381.49 237.037 382.96 239.55 385.414 240.194C387.871 240.839 390.383 239.37 391.028 236.919C391.673 234.464 390.203 231.955 387.749 231.31Z" fill="#1D1D1B"/>
<path d="M398.748 222.635C397.579 222.139 396.23 222.681 395.731 223.849C395.235 225.016 395.777 226.364 396.946 226.863C398.115 227.358 399.463 226.817 399.963 225.649C400.459 224.481 399.917 223.134 398.748 222.635Z" fill="#1D1D1B"/>
<path d="M410.436 213.93C409.352 213.267 407.936 213.61 407.276 214.69C406.612 215.773 406.956 217.187 408.037 217.847C409.121 218.51 410.536 218.167 411.197 217.087C411.861 216.004 411.517 214.59 410.436 213.93Z" fill="#1D1D1B"/>
<path d="M420.336 205.719C419.362 204.907 417.912 205.038 417.1 206.014C416.287 206.987 416.418 208.435 417.395 209.247C418.369 210.059 419.818 209.929 420.631 208.952C421.444 207.979 421.313 206.531 420.336 205.719Z" fill="#1D1D1B"/>
<path d="M419.456 179.537C416.917 176.703 412.558 176.459 409.717 178.999C406.88 181.536 406.636 185.891 409.178 188.729C411.717 191.564 416.077 191.807 418.917 189.267C421.755 186.731 421.998 182.375 419.456 179.537Z" fill="#71509C"/>
<path d="M439.713 191.098C439.013 190.039 437.588 189.75 436.529 190.447C435.469 191.143 435.18 192.57 435.877 193.628C436.577 194.687 438.002 194.976 439.062 194.279C440.121 193.58 440.41 192.156 439.713 191.098Z" fill="#1D1D1B"/>
<path d="M450.082 184.892C449.543 183.742 448.176 183.249 447.026 183.784C445.875 184.323 445.382 185.688 445.917 186.838C446.456 187.988 447.823 188.481 448.974 187.945C450.125 187.407 450.618 186.041 450.082 184.892Z" fill="#1D1D1B"/>
<path d="M460.04 167.935C459.31 165.505 456.746 164.127 454.314 164.86C451.882 165.593 450.502 168.151 451.236 170.581C451.967 173.011 454.53 174.389 456.963 173.656C459.395 172.926 460.774 170.365 460.04 167.935Z" fill="#1D1D1B"/>
<path d="M470.869 160.981C470.684 159.725 469.518 158.858 468.26 159.044C467.003 159.229 466.135 160.394 466.321 161.65C466.507 162.906 467.673 163.773 468.93 163.588C470.187 163.402 471.055 162.237 470.869 160.981Z" fill="#1D1D1B"/>
<path d="M487.878 163.597C487.878 161.06 485.82 159.004 483.281 159.004C480.742 159.004 478.684 161.06 478.684 163.597C478.684 166.133 480.742 168.189 483.281 168.189C485.82 168.189 487.878 166.133 487.878 163.597Z" fill="#1D1D1B"/>
<path d="M490.804 201.521C491.297 199.033 493.717 197.415 496.208 197.908C498.698 198.4 500.317 200.818 499.824 203.306C499.331 205.794 496.911 207.413 494.42 206.92C491.93 206.427 490.311 204.009 490.804 201.521Z" fill="#1D1D1B"/>
<path d="M491.985 228.619C492.941 226.267 495.623 225.136 497.973 226.091C500.324 227.046 501.459 229.726 500.503 232.074C499.547 234.425 496.865 235.556 494.515 234.601C492.165 233.646 491.029 230.967 491.985 228.619Z" fill="#396AB2"/>
<path d="M513.451 207.053C514.833 204.927 517.683 204.322 519.811 205.703C521.939 207.084 522.545 209.931 521.162 212.057C519.78 214.183 516.931 214.788 514.803 213.407C512.675 212.026 512.069 209.179 513.451 207.053Z" fill="#1D1D1B"/>
<path d="M508.653 228.768C510.413 226.94 513.323 226.886 515.153 228.644C516.982 230.402 517.037 233.309 515.278 235.137C513.518 236.965 510.608 237.02 508.778 235.262C506.948 233.504 506.893 230.596 508.653 228.768Z" fill="#1D1D1B"/>
<path d="M515.869 235.838C516.907 235.108 518.341 235.354 519.071 236.391C519.802 237.428 519.555 238.861 518.517 239.591C517.479 240.321 516.045 240.074 515.315 239.037C514.584 238 514.83 236.568 515.869 235.838Z" fill="#1D1D1B"/>
<path d="M526.673 234.394C530.144 232.827 534.23 234.369 535.798 237.837C537.365 241.304 535.822 245.386 532.351 246.952C528.881 248.519 524.795 246.977 523.227 243.509C521.659 240.042 523.203 235.96 526.673 234.394Z" fill="#396AB2"/>
<path d="M518.285 248.398C520.754 247.811 523.236 249.335 523.823 251.802C524.411 254.268 522.886 256.747 520.417 257.334C517.948 257.921 515.466 256.397 514.879 253.931C514.291 251.464 515.817 248.985 518.285 248.398Z" fill="#1D1D1B"/>
<path d="M512.63 260.357C512.717 259.092 511.762 257.995 510.495 257.908C509.229 257.82 508.131 258.775 508.044 260.04C507.956 261.305 508.911 262.402 510.178 262.49C511.444 262.577 512.542 261.623 512.63 260.357Z" fill="#1D1D1B"/>
<path d="M518.901 261.929C521.412 262.3 523.147 264.636 522.776 267.145C522.405 269.654 520.067 271.388 517.555 271.017C515.043 270.646 513.308 268.31 513.679 265.801C514.051 263.292 516.389 261.558 518.901 261.929Z" fill="#1D1D1B"/>
<path d="M544.117 275.238C547.713 276.497 549.606 280.426 548.346 284.018C547.085 287.611 543.152 289.502 539.557 288.243C535.961 286.984 534.071 283.054 535.328 279.462C536.585 275.87 540.522 273.978 544.117 275.238Z" fill="#396AB2"/>
<path d="M530.673 286.061C531.769 286.7 532.144 288.105 531.504 289.2C530.865 290.295 529.459 290.669 528.363 290.03C527.267 289.391 526.892 287.986 527.531 286.891C528.171 285.796 529.577 285.422 530.673 286.061Z" fill="#1D1D1B"/>
<path d="M518.331 285.513C520.243 287.179 520.444 290.081 518.773 291.994C517.104 293.904 514.2 294.105 512.285 292.435C510.373 290.768 510.172 287.867 511.844 285.954C513.512 284.044 516.416 283.843 518.331 285.513Z" fill="#396AB2"/>
<path d="M510.866 288.741C512.428 290.739 512.075 293.626 510.075 295.189C508.075 296.749 505.186 296.397 503.621 294.398C502.059 292.4 502.412 289.514 504.412 287.95C506.412 286.387 509.302 286.743 510.866 288.741Z" fill="#1D1D1B"/>
<path d="M506.16 295.268C507.317 297.525 506.422 300.293 504.163 301.449C501.904 302.604 499.133 301.71 497.976 299.453C496.82 297.197 497.715 294.429 499.974 293.273C502.233 292.117 505.003 293.011 506.16 295.268Z" fill="#1D1D1B"/>
<path d="M495.767 286.643C496.476 289.079 495.073 291.628 492.634 292.337C490.196 293.045 487.644 291.643 486.935 289.207C486.226 286.77 487.629 284.222 490.068 283.513C492.506 282.804 495.057 284.206 495.767 286.643Z" fill="#1D1D1B"/>
<path d="M490.074 305.894C490.193 307.156 489.261 308.276 487.998 308.394C486.734 308.513 485.614 307.582 485.495 306.32C485.376 305.058 486.308 303.938 487.571 303.82C488.835 303.701 489.955 304.632 490.074 305.894Z" fill="#1D1D1B"/>
<path d="M474.014 312.262C473.768 314.786 475.613 317.034 478.139 317.28C480.666 317.526 482.916 315.683 483.163 313.159C483.409 310.634 481.564 308.387 479.038 308.14C476.511 307.894 474.261 309.737 474.014 312.262Z" fill="#1D1D1B"/>
<path d="M467.847 298.434C467.125 300.867 468.517 303.422 470.949 304.143C473.385 304.864 475.942 303.474 476.663 301.044C477.385 298.611 475.994 296.056 473.561 295.335C471.126 294.614 468.568 296.004 467.847 298.434Z" fill="#1D1D1B"/>
<path d="M464.741 292.783C464.157 293.909 464.598 295.296 465.725 295.88C466.851 296.464 468.239 296.023 468.824 294.897C469.408 293.772 468.967 292.385 467.84 291.801C466.714 291.217 465.326 291.658 464.741 292.783Z" fill="#1D1D1B"/>
<path d="M449.997 296.505C448.423 298.494 448.764 301.383 450.755 302.956C452.746 304.528 455.638 304.188 457.212 302.198C458.786 300.209 458.445 297.32 456.454 295.747C454.463 294.175 451.571 294.516 449.997 296.505Z" fill="#396AB2"/>
<path d="M461.901 277.073C460.939 277.9 460.832 279.351 461.663 280.312C462.491 281.273 463.944 281.38 464.906 280.55C465.868 279.722 465.974 278.271 465.143 277.31C464.315 276.349 462.863 276.243 461.901 277.073Z" fill="#1D1D1B"/>
<path d="M443.988 278.844C441.787 280.109 441.028 282.917 442.295 285.116C443.561 287.315 446.371 288.072 448.572 286.807C450.774 285.542 451.532 282.734 450.265 280.535C448.999 278.336 446.189 277.579 443.988 278.844Z" fill="#1D1D1B"/>
<path d="M444 272.575C442.801 272.989 442.161 274.297 442.575 275.495C442.989 276.693 444.298 277.332 445.498 276.919C446.697 276.505 447.337 275.197 446.923 273.999C446.509 272.8 445.2 272.162 444 272.575Z" fill="#1D1D1B"/>
<path d="M432.07 261.741C428.301 262.276 425.676 265.768 426.215 269.533C426.751 273.299 430.246 275.921 434.015 275.382C437.784 274.847 440.405 271.355 439.869 267.59C439.333 263.824 435.838 261.203 432.07 261.741Z" fill="#396AB2"/>
<path d="M452.46 255.251C449.924 255.126 447.769 257.082 447.644 259.615C447.519 262.149 449.477 264.302 452.013 264.427C454.548 264.552 456.704 262.596 456.829 260.062C456.954 257.529 454.996 255.375 452.46 255.251Z" fill="#396AB2"/>
<path d="M448.484 250.44C447.251 250.139 446.006 250.896 445.707 252.128C445.409 253.36 446.164 254.604 447.397 254.902C448.63 255.203 449.875 254.446 450.173 253.214C450.472 251.982 449.717 250.738 448.484 250.44Z" fill="#1D1D1B"/>
<path d="M450.363 243.619C449.209 243.09 447.845 243.597 447.315 244.75C446.786 245.903 447.294 247.266 448.448 247.795C449.602 248.324 450.965 247.816 451.495 246.663C452.025 245.511 451.516 244.148 450.363 243.619Z" fill="#1D1D1B"/>
<path d="M447.939 227.469C444.84 225.261 440.532 225.982 438.319 229.078C436.106 232.175 436.83 236.478 439.93 238.687C443.029 240.895 447.336 240.174 449.547 237.078C451.757 233.981 451.035 229.678 447.936 227.469H447.939Z" fill="#396AB2"/>
<path d="M464.625 238.1C463.749 237.181 462.293 237.145 461.374 238.021C460.455 238.897 460.418 240.351 461.295 241.269C462.172 242.188 463.627 242.224 464.543 241.348C465.46 240.472 465.499 239.018 464.622 238.103L464.625 238.1Z" fill="#1D1D1B"/>
<path d="M466.574 226.317C465.204 224.182 462.358 223.562 460.221 224.933C458.083 226.305 457.462 229.146 458.835 231.281C460.205 233.416 463.052 234.037 465.189 232.665C467.326 231.296 467.947 228.452 466.574 226.317Z" fill="#1D1D1B"/>
<path d="M475.338 234.469C474.867 233.292 473.53 232.717 472.352 233.188C471.174 233.66 470.598 234.995 471.07 236.172C471.542 237.349 472.879 237.924 474.057 237.452C475.235 236.981 475.81 235.646 475.338 234.469Z" fill="#1D1D1B"/>
<path d="M479.421 215.222C478.94 212.731 476.529 211.101 474.038 211.581C471.545 212.062 469.913 214.471 470.394 216.959C470.875 219.45 473.286 221.08 475.777 220.599C478.27 220.119 479.902 217.71 479.421 215.222Z" fill="#1D1D1B"/>
<path d="M485.93 212.16C485.93 210.891 484.901 209.863 483.631 209.863C482.362 209.863 481.333 210.891 481.333 212.16C481.333 213.428 482.362 214.456 483.631 214.456C484.901 214.456 485.93 213.428 485.93 212.16Z" fill="#1D1D1B"/>
</svg>
