<?xml version="1.0" encoding="utf-8"?>
<!-- Generator: Adobe Illustrator 27.1.1, SVG Export Plug-In . SVG Version: 6.00 Build 0)  -->
<svg version="1.1" id="Livello_2_00000183928028924238145530000014487703393517585033_"
	 xmlns="http://www.w3.org/2000/svg" xmlns:xlink="http://www.w3.org/1999/xlink" x="0px" y="0px" viewBox="0 0 448.9 165.5"
	 style="enable-background:new 0 0 448.9 165.5;" xml:space="preserve">
<style type="text/css">
	.st0{fill:#FFFFFF;}
</style>
<g id="Livello_1-2">
	<g id="logo">
		<g>
			<path class="st0" d="M55.7,100.6c-0.2,6.8-0.9,13.6-3,19.7c-1.9,3.8-5.1,5.8-9.4,5.8H29.5v-9.4L0.9,134.2V163h50.2
				c11.8-0.1,22.4-6.9,26-18.5c7.1-19.3,7.1-41.4,7.1-61.5L55.7,100.6L55.7,100.6z"/>
			<path class="st0" d="M83.3,82.8v1.1l-28.6,17.5c0.2-6.4,0-12.8,0-18.7c0-12.2,1.1-26.6-3-38.5c-1.9-3.9-5.1-5.9-9.4-5.9H28.6
				v79.1L0,135.1V1.5h50.2C62,1.6,72.6,8.4,76.2,20C83.6,39.7,83.3,62.4,83.3,82.8L83.3,82.8z"/>
		</g>
		<g>
			<path class="st0" d="M129,26.5c-0.6,15.1-1.4,30.2-2.2,45.3l-29.7,21c0.9-16.7,1.8-33.4,2.6-50.1C99.7,42.7,129,26.5,129,26.5z"
				/>
			<path class="st0" d="M125.7,71.8c-0.6,10.2-1.1,20.4-1.7,30.6l-29.7,21c0.5-10.2,1.1-20.4,1.6-30.6L125.7,71.8L125.7,71.8z"/>
			<path class="st0" d="M121,125.5c-0.4,6.7-0.7,13.5-1,20.2L91,164h-0.3c0.3-6.6,0.6-13.2,0.9-19.8L121,125.5L121,125.5z"/>
			<path class="st0" d="M118.9,146.4c-0.3,6.1-0.6,12.2-0.8,18.3H89.9L118.9,146.4z"/>
			<path class="st0" d="M123.1,103c-0.4,7.4-0.8,14.8-1.2,22.1l-29.5,18.8v0c0.3-6.6,0.7-13.2,1-19.8L123.1,103L123.1,103z"/>
			<path class="st0" d="M130.6,0.8c-0.3,8.4-0.6,16.9-1,25.4l-29.3,16.2c0.7-13.9,1.3-27.7,1.7-41.6C102,0.8,130.6,0.8,130.6,0.8z"
				/>
		</g>
		<g>
			<path class="st0" d="M181,34.2h-6.7c-0.1-4.3-0.4-8.6-0.9-12.8c-0.9-6.1-4.9-10.8-9.3-10.7c-4.5,0.1-7.3,3.9-10.2,12
				c-1,2.9-1.8,5.9-2.4,8.9l-7.3,0.2c0.9-4.9,2.1-9.7,3.6-14.5c2.2-8.3,7-16.2,16.6-16.1c8.4,0,14.1,6.3,15.6,17
				C180.7,24,180.9,28.1,181,34.2L181,34.2z"/>
			<path class="st0" d="M149.6,31.6c-2.6,14.9-1.6,25.9-2,38.9h-7.3c0.6-13-0.1-24.9,2-38.7C142.4,31.8,149.6,31.6,149.6,31.6z"/>
			<path class="st0" d="M145.9,70.5c-0.1,4-0.2,7.9-0.4,11.8c-0.3,6.8,0,13.7-0.3,20.6h-7.5c0.4-7,0.1-13.9,0.4-20.6
				c0.2-3.9,0.3-7.9,0.5-11.8H145.9L145.9,70.5z"/>
			<path class="st0" d="M135.8,103c0.4,7.5,0.8,15.1,1,22.6l7.7,0.3c-0.3-7.7-0.7-15.3-1.2-23C143.3,103,135.8,103,135.8,103z"/>
			<path class="st0" d="M144,146.2l-7,0.1c-1.4-6.4-2.5-13.5-2.2-20.4l7.7-0.3c-0.1,5.4-0.3,13.5,1.3,19.3
				C143.8,146.5,143.7,144.9,144,146.2L144,146.2z"/>
			<path class="st0" d="M165.4,148.5c-2.4,7.8-6.1,17-14.9,17c-9.3,0-16.6-9.8-16.7-18.4c0-0.3,0-0.5,0-0.8l8.3-0.1
				c1.2,5.1,5.5,9,8.9,9c2.9,0,5.6-3.1,7.7-6.7L165.4,148.5L165.4,148.5z"/>
			<path class="st0" d="M170.6,128.9c0,7.8-2.3,19.2-2.4,19.6h-8c2.2-2.9,3.5-14.1,3.8-19.6H170.6z"/>
			<path class="st0" d="M174.1,106.2c0,8.9-0.3,15.4-0.9,24.9l-2.7-2.1h-4.2c0.9-9.5,1-14,1.1-22.8H174.1L174.1,106.2z"/>
			<path class="st0" d="M177.6,97.7c0,7.1-0.6,11-1,13.3l-2.4-4.8h-3.9c0.2-2.8-0.2-5.7,0-8.5C170.2,97.7,177.6,97.7,177.6,97.7z"/>
			<path class="st0" d="M180.3,65.9h-7.4c0-10.6-0.8-21.1-1.1-31.7h7.4C179.9,45.7,180.8,55.5,180.3,65.9z"/>
		</g>
		<g>
			<path class="st0" d="M234.1,161.8c-1.3,0.7-2.8,1.3-4.3,1.7l1.5-12.5c0.8-0.6,1.6-1.3,2.2-2.1L234.1,161.8L234.1,161.8z"/>
			<path class="st0" d="M216.2,149.9c0,0,1.1,1.7,1.1,3.7c0,3.9-3,9.2-3,9.2c-1.6,1.4-3.6,2.6-5.1,2.7l1.5-10.7
				C213.8,154.2,215,152.2,216.2,149.9L216.2,149.9z"/>
			<path class="st0" d="M220.3,149.4c0,0,0.6,2.2,0.6,4.1c0,3.9-1.6,7.6-1.6,7.6c-1.5,1.9-3,2.7-4.6,3.1v-10
				C217.9,153.7,219.1,151.8,220.3,149.4L220.3,149.4z"/>
			<path class="st0" d="M223.9,148.9c0,0,0.3,2.6,0.3,4.6c0,3.9-1.6,7.6-1.6,7.6c-0.8,1.4-1.5,1.9-3.2,2.8V153
				C222.6,152.4,222.7,151.3,223.9,148.9L223.9,148.9z"/>
			<path class="st0" d="M227.4,148.9c0,0,0.3,2.6,0.3,4.6c0,3.9-1.6,7.6-1.6,7.6c-0.8,1.4-1.5,1.9-3.2,2.8V153
				C226,152.4,226.2,151.3,227.4,148.9L227.4,148.9z"/>
			<path class="st0" d="M232.3,145c0,0,0.6,5.4,0.6,7.3c0,3.9-2.8,8.7-2.9,8.8c-0.8,1.4-2.5,2.4-4,2.8V153
				C229.4,151.6,230.5,149.9,232.3,145z"/>
			<path class="st0" d="M211.1,152.7l-1.8,11.1c-11.5,2.8-23.4,1.4-24.6-14.3c-0.4-4.5-0.2-9.1,0.1-13.6l7.8,6.7v0
				C194,154.8,202.8,157.8,211.1,152.7z"/>
			<path class="st0" d="M234.2,163.3l-0.7-14.4c4.1-2.7,5.7-16.6,5.5-23.5l7.1,4.5C245.7,149.9,239.8,160.4,234.2,163.3L234.2,163.3
				z"/>
			<path class="st0" d="M193.4,122.6c-0.6,6.7,0.2,15.7,2.1,22.9l-10.8-9.6l3,2.9c-1.7-7.7-1.8-12-1.9-22.3L193.4,122.6L193.4,122.6
				z"/>
			<path class="st0" d="M236.4,124.2c0,0,1.4-18.7,0.3-28.5l7.2,5.4c0,11.8,0,17.4-0.7,27.1L236.4,124.2z"/>
			<path class="st0" d="M195.3,94.6c-0.1,11.2,0.3,20.6,0.6,30l-7.8-6.3c-0.1-12.5,0.3-20,1-31.3L195.3,94.6L195.3,94.6z"/>
			<path class="st0" d="M240.9,99.3l-7.4-5.5c-0.4-9.9-0.6-24.7-0.6-34.5l7.2,5.5C240.5,73.2,240.9,90.9,240.9,99.3L240.9,99.3z"/>
			<path class="st0" d="M198.6,51c-1.1,9.6-1.1,37.5-0.8,47.3l-6.2-7.6c-0.1-8.5-0.8-29.5,0.7-46.7L198.6,51L198.6,51z"/>
			<path class="st0" d="M236.6,62.4l-7.7-5.9c0.3-12.4-0.1-21.6-2.6-32.8c-2.2-8.4-5.8-12.9-10-13c-4.2-0.1-8.6,4.2-11.3,12.8
				c-2.6,9.5-3.4,20.6-3.4,31l-6.3-6.9c0.6-10.6,0.9-19.3,4.3-30.1c2.5-8,7.6-17.6,16.4-17.5c8.8,0.1,15.8,9,17.3,17.7
				C236.4,32.6,235.5,46.8,236.6,62.4z"/>
		</g>
		<path class="st0" d="M265.9,23.2l-0.2,81l3.3,15.2V145l2.4,15v4.1c-3.5,0-6.2,0-9.5,0v-25.9l-3.5-10.1v-25.2l-3.5-8.4v-33
			l-3.3-11.9l0,0c-0.3-8.8-0.5-17.7-0.5-26.5h-11V1.1h40.7v22.1L265.9,23.2L265.9,23.2z"/>
		<g>
			<path class="st0" d="M327,81.1c0,0.3-0.1,23.8-1.4,35.2h-15.3c1.1-11.4,1.2-34.9,1.2-35.2H327L327,81.1z"/>
			<path class="st0" d="M324.1,116.3c-0.9,33.1-7.9,48.9-24.6,48.9c-11,0-17.6-8.9-19-19.5c-2.6-24.8-3.4-36.4-3.7-60h13.8
				c-0.4,20.1,0,30.6,1.5,48c0.9,8,3.3,9.6,6.5,9.6c8.7,0,9.5-21.2,10.1-27L324.1,116.3L324.1,116.3z"/>
			<path class="st0" d="M293.7,56c-1.5,17.2-1.5,19.4-1.4,29.7H278c-0.9-14.8,3.7-19.7,3.3-29.7L293.7,56L293.7,56z"/>
			<path class="st0" d="M328.6,56c0.7,9.3,0.9,16,0.5,25.1h-15.8c0.3-9,0.5-14.3,0.2-25.1H328.6L328.6,56z"/>
			<path class="st0" d="M330.8,56h-15.4c0.3-8.6-1.8-24.2-2.2-27.5h15.4C329.9,38.2,330.5,46.5,330.8,56L330.8,56z"/>
			<path class="st0" d="M299.4,28.5c-3.4,8.7-3.4,20.2-3.3,27.5h-14.8c-0.2-11.7-0.1-15.1,1.6-27.5L299.4,28.5L299.4,28.5z"/>
			<path class="st0" d="M330.5,28.5h-15.7c-1.2-4.4-3.6-6.5-6.5-6.3c-2.7,0.2-4.5,2.3-6.4,6.3h-15.8c0-14.3,8.5-27.5,23.5-27.5
				C325.7,1.1,330.5,20,330.5,28.5L330.5,28.5z"/>
		</g>
		<g>
			<path class="st0" d="M330.7,159.2c0,1.6-0.1,3.3-0.1,5h4.8c0-1.6,0-3.3,0.1-5H330.7z"/>
			<rect x="332.6" y="116.3" class="st0" width="5.9" height="42.9"/>
			<path class="st0" d="M382.6,86.4c-1,10.2-7.5,27.1-18.5,27.1c-6.9,0-12.5,0.2-24.7-0.2c0,1.6,0,3,0,3h-4.9V81.1h4.9l0.2,25
				c11.4,0.3,17.6,0.3,23.6,0.3c7.6,0,13-9.9,14.3-20.1H382.6L382.6,86.4z"/>
			<polygon class="st0" points="341.1,56 341.1,81.1 336.6,81.1 336.6,56 			"/>
			<path class="st0" d="M385.9,56c0,10.1-0.2,20.4-2.5,30.4h-5.1c2.6-10,2.6-20.3,2.8-30.4L385.9,56L385.9,56z"/>
			<path class="st0" d="M386.9,56L386.9,56l-4.8,0v0c0.2-8.9-0.9-18.3-2-27.5h5C385.9,37.7,386.9,46.9,386.9,56L386.9,56z"/>
			<polygon class="st0" points="343.1,28.5 343.4,56 338.9,56 338.7,28.5 			"/>
			<path class="st0" d="M386.3,28.5h-5c-0.3-2.5-0.7-5-1.2-7.5C378,12.4,373.2,8,366.5,8c-9.4,0-13.8,0-21.6,0
				c-0.1,9.7,0,12.1,0,20.5h-4.4c0-10.2,0-13.7,0.1-27.5h27.4c8.2,0,14,5.2,16.5,15.5C385.4,20.5,386,24.5,386.3,28.5L386.3,28.5z"
				/>
		</g>
		<g>
			<rect x="396.9" y="1.1" class="st0" width="4.8" height="27.5"/>
			<polygon class="st0" points="400.6,28.5 401,59.1 396.2,59.1 395.9,28.5 			"/>
			<polygon class="st0" points="400.1,59.1 400.3,91.1 395.5,91.1 395.3,59.1 			"/>
			<polygon class="st0" points="399.1,91.1 398.7,163.1 393.9,163.1 394.3,91.1 			"/>
		</g>
		<path class="st0" d="M410.2,163.1l2.5-89.1h0.8l1.1-42.6l1-0.1l0.4-30.2h28.3l4.6,162h-17.1l-0.2-39.5h-2.2l-0.2,39.5L410.2,163.1
			L410.2,163.1z M428.2,96.6h2.8l-0.3-69h-0.9L428.2,96.6L428.2,96.6z"/>
	</g>
</g>
</svg>
